# xmcd
# 
# Track frame offsets:
#     150
#     12160
#     31892
#     47557
#     64587
#     86007
#     105432
#     121225
#     134965
#     148530
# 
# Disc length: 2237
# 
# Revision: 1
# Processed by: cddbd v1.5.2PL0 Copyright (c) Steve Scherf et al.
# Submitted via: BonkEnc v1.0.5
# 
DISCID=8208bb0a
DTITLE=Restless Heart - The Best of Restless Heart
DYEAR=0
DGENRE=
TTITLE0=You Can Depend On Me
TTITLE1=Fast Moving Train
TTITLE2=A Tender Lie
TTITLE3=Wheels
TTITLE4=The Bluest Eyes in Texas
TTITLE5=Familiar Pain
TTITLE6=That Rock Won't Roll
TTITLE7=Til I Loved You
TTITLE8=Why Does It Have To Be
TTITLE9=I'll Still Be Lovin' You
EXTD=
EXTT0=
EXTT1=
EXTT2=
EXTT3=
EXTT4=
EXTT5=
EXTT6=
EXTT7=
EXTT8=
EXTT9=
PLAYORDER=
